<svg xmlns="http://www.w3.org/2000/svg" viewBox="0 0 511.999 511.999"><path d="M495.618 417.311c-18.739 10.738-38.549 16.176-59.236 16.176h-.033c-45.583 0-88.288-33.008-140.129-84.837L158.446 210.91c-40.916-40.961-67.652-68.803-76.277-106.055-7.251-31.321-2.964-60.846 12.695-88.168-6.953 2.087-13.336 5.873-18.622 11.159L53.344 50.7C17.14 86.902 8.119 123.851 18.469 168.555c8.625 37.252 33.779 76.938 74.693 117.898l132.645 132.612c51.841 51.829 101.257 78.121 146.84 78.121h.035c33.565 0 60.726-10.16 88.833-38.268l22.899-22.899a44.314 44.314 0 0011.204-18.708z" fill="#e6f3ea"/><path d="M497.316 443.428c16.149-18.333 19.348-44.555 7.747-66.465-18.949-35.833-77.547-71.79-89.148-78.662l-.201-.117c-10.257-5.858-21.191-8.954-31.619-8.954-16.329 0-30.447 7.693-38.933 21.158-9.943 11.854-18.011 20.658-20.232 22.688-6.518 4.354-11.869 6.657-16.898 6.879-.522-.52-1.041-1.031-1.564-1.555L168.701 200.668c-39.926-39.969-64.782-66.138-72.411-99.08-5.882-25.403-3.118-49.622 8.166-72.096a30.134 30.134 0 013.232-.183c4.863 0 9.741 1.209 14.06 3.471 21.313 11.27 45.784 44.7 61.581 72.226l.432.751c4.576 8.083 6.202 16.281 4.457 22.523-1.117 4.016-3.602 7.196-7.385 9.451-6.874 4.102-9.124 12.998-5.024 19.872 4.102 6.876 12.998 9.124 19.872 5.024 10.251-6.115 17.327-15.307 20.456-26.561 3.868-13.833 1.304-29.712-7.219-44.709l-.133-.23-.316-.548c-11.08-19.309-40.39-66.088-73.222-83.45-8.502-4.454-18.032-6.808-27.561-6.808-13.202 0-25.735 4.329-36.007 12.286l-.436.341a58.942 58.942 0 00-2.191 1.818c-.187.162-.377.32-.562.486a58.807 58.807 0 00-2.487 2.338L43.095 40.451C4.78 78.765-7.531 120.51 4.349 171.825a159.461 159.461 0 001.935 7.511c.442 1.561.92 3.128 1.415 4.695 8.501 26.952 24.641 54.782 48.202 83.143a400.06 400.06 0 005.951 6.994 409.943 409.943 0 004.642 5.239 453.998 453.998 0 0012.45 13.272 498.766 498.766 0 003.973 4.022l132.645 132.612a467.887 467.887 0 0015.326 14.66c49.221 44.945 96.838 67.704 141.761 67.704h.033c39.123 0 69.681-13.111 99.083-42.513l22.881-22.881a60.87 60.87 0 002.318-2.46c.119-.129.236-.261.352-.395zm-155.613-86.701c.101-.068.203-.139.303-.21 5.476-3.918 21.338-22.684 26.068-28.342.496-.594.944-1.226 1.339-1.891 3.226-5.428 8.028-8.066 14.679-8.066 5.366 0 11.293 1.758 17.149 5.084 23.1 13.691 65.506 43.216 78.201 67.219a30.027 30.027 0 013.352 17.224c-14.844 7.463-30.431 11.249-46.448 11.249-33.601 0-67.01-21.764-104.697-56.357 3.315-1.649 6.664-3.611 10.054-5.91zM148.198 221.16L285.971 358.9c53.482 53.47 99.522 89.081 150.411 89.081 5.596 0 11.144-.357 16.64-1.065l-1.754 1.754c-24.167 24.165-46.933 34.022-78.586 34.022h-.033c-41.604 0-87.561-24.855-136.593-73.877L103.417 276.209c-38.992-39.036-62.823-76.356-70.828-110.923-9.663-41.739-.393-72.944 30.993-104.327l1.706-1.702c-2.023 15.834-1.109 32.159 2.761 48.868 9.407 40.632 36.582 69.421 80.149 113.035z" fill="#79b38a"/></svg>